<?xml version="1.0" encoding="UTF-8" standalone="no"?>
<!-- Created with Inkscape (http://www.inkscape.org/) -->

<svg
   width="45.283001mm"
   height="45.283001mm"
   viewBox="0 0 45.283001 45.283"
   version="1.1"
   id="svg5"
   xml:space="preserve"
   inkscape:version="1.2.2 (732a01da63, 2022-12-09)"
   sodipodi:docname="favicon.svg"
   inkscape:export-filename="logo_plain.svg"
   inkscape:export-xdpi="96"
   inkscape:export-ydpi="96"
   xmlns:inkscape="http://www.inkscape.org/namespaces/inkscape"
   xmlns:sodipodi="http://sodipodi.sourceforge.net/DTD/sodipodi-0.dtd"
   xmlns="http://www.w3.org/2000/svg"
   xmlns:svg="http://www.w3.org/2000/svg"><sodipodi:namedview
     id="namedview7"
     pagecolor="#ffffff"
     bordercolor="#000000"
     borderopacity="0.25"
     inkscape:showpageshadow="2"
     inkscape:pageopacity="0"
     inkscape:pagecheckerboard="0"
     inkscape:deskcolor="#d1d1d1"
     inkscape:document-units="mm"
     showgrid="false"
     inkscape:zoom="2.0888418"
     inkscape:cx="106.27899"
     inkscape:cy="87.129624"
     inkscape:window-width="1680"
     inkscape:window-height="979"
     inkscape:window-x="1912"
     inkscape:window-y="-8"
     inkscape:window-maximized="1"
     inkscape:current-layer="g479" /><defs
     id="defs2" /><g
     inkscape:groupmode="layer"
     id="layer1"
     inkscape:label="Fond"
     style="display:inline"
     transform="scale(0.51310833,0.99999257)"
     sodipodi:insensitive="true"><rect
       style="fill:#00379c;stroke-width:0.264583"
       id="rect299"
       width="88.252319"
       height="45.283337"
       x="0"
       y="0" /></g><g
     inkscape:groupmode="layer"
     id="layer2"
     inkscape:label="Crochets"
     style="fill:#deb841;fill-opacity:1"
     transform="translate(-63.009499,-101.06717)"
     sodipodi:insensitive="true"><path
       style="fill:#deb841;fill-opacity:1;stroke-width:0.264583"
       d="m 63.009499,123.69029 v 22.66022 h 22.480999 v -2.68698 H 65.741253 v -20.01802 h -2.731754 z"
       id="path411" /><path
       style="fill:#deb841;fill-opacity:1;stroke-width:0.264583"
       d="M 108.2925,123.72739 V 101.06717 H 85.811498 v 2.68698 h 19.749252 v 20.01802 h 2.73175 z"
       id="path411-6" /></g><g
     inkscape:groupmode="layer"
     id="layer3"
     inkscape:label="Texte"
     style="display:none;fill:#de9e36;fill-opacity:1"
     transform="translate(-82.964473,-100.92462)"
     sodipodi:insensitive="true"><text
       xml:space="preserve"
       style="font-size:14.1111px;font-family:monospace;-inkscape-font-specification:monospace;letter-spacing:1.32292px;display:inline;fill:#de9e36;fill-opacity:1;stroke-width:0.264583"
       x="109.34541"
       y="113.77959"
       id="text188-1"><tspan
         sodipodi:role="line"
         id="tspan186-8"
         style="font-style:normal;font-variant:normal;font-weight:normal;font-stretch:normal;font-size:14.1111px;font-family:'Bree Serif';-inkscape-font-specification:'Bree Serif';text-align:end;text-anchor:end;fill:#de9e36;fill-opacity:1;stroke-width:0.264583"
         x="110.66833"
         y="113.77959">F</tspan></text><text
       xml:space="preserve"
       style="font-size:14.1111px;font-family:monospace;-inkscape-font-specification:monospace;letter-spacing:1.32292px;display:inline;fill:#de9e36;fill-opacity:1;stroke-width:0.264583"
       x="109.75464"
       y="128.33809"
       id="text188-1-8"><tspan
         sodipodi:role="line"
         id="tspan186-8-5"
         style="font-style:normal;font-variant:normal;font-weight:normal;font-stretch:normal;font-size:14.1111px;font-family:'Bree Serif';-inkscape-font-specification:'Bree Serif';text-align:end;text-anchor:end;fill:#de9e36;fill-opacity:1;stroke-width:0.264583"
         x="111.07756"
         y="128.33809">P</tspan></text><text
       xml:space="preserve"
       style="font-size:14.1111px;font-family:monospace;-inkscape-font-specification:monospace;letter-spacing:1.32292px;display:inline;fill:#de9e36;fill-opacity:1;stroke-width:0.264583"
       x="110.27676"
       y="142.73654"
       id="text188-1-8-9"><tspan
         sodipodi:role="line"
         id="tspan186-8-5-3"
         style="font-style:normal;font-variant:normal;font-weight:normal;font-stretch:normal;font-size:14.1111px;font-family:'Bree Serif';-inkscape-font-specification:'Bree Serif';text-align:end;text-anchor:end;fill:#de9e36;fill-opacity:1;stroke-width:0.264583"
         x="111.59968"
         y="142.73654">A</tspan></text></g><g
     inkscape:groupmode="layer"
     id="g479"
     inkscape:label="Texte (vecteur)"
     style="display:inline;fill:#de9e36;fill-opacity:1"
     transform="translate(-82.964473,-100.92462)"
     sodipodi:insensitive="true"><g
       aria-label="F"
       id="text469"
       style="font-size:14.1111px;font-family:monospace;-inkscape-font-specification:monospace;letter-spacing:1.32292px;display:inline;stroke-width:0.264583"><path
         d="m 102.16287,113.77959 v -1.143 l 0.46567,-0.0423 q 0.40922,-0.0423 0.40922,-0.39511 v -6.56166 l -0.80433,-0.0423 v -1.19944 h 6.81566 v 2.34244 l -1.43933,0.0988 v -0.56445 q 0,-0.23989 -0.0706,-0.33866 -0.0705,-0.0988 -0.33866,-0.0988 h -2.44122 v 2.49766 h 3.47133 v 1.43933 h -3.47133 v 2.76578 l 1.25588,0.0423 v 1.19945 z"
         style="font-family:'Bree Serif';-inkscape-font-specification:'Bree Serif';text-align:end;text-anchor:end"
         id="path481" /></g><g
       aria-label="P"
       id="text473"
       style="font-size:14.1111px;font-family:monospace;-inkscape-font-specification:monospace;letter-spacing:1.32292px;display:inline;stroke-width:0.264583"><path
         d="m 101.88064,128.33809 v -1.143 l 0.46567,-0.0423 q 0.40922,-0.0423 0.40922,-0.39511 v -6.56167 l -0.80433,-0.0423 v -1.19944 h 4.03577 q 1.58045,0 2.45533,0.74789 0.889,0.73377 0.889,2.21544 0,1.48166 -1.00188,2.31422 -1.00189,0.81844 -2.65289,0.81844 h -1.19944 v 2.04611 l 1.35466,0.0423 v 1.19944 z m 2.59645,-4.65666 h 1.01599 q 2.06022,0 2.06022,-1.67922 0,-1.016 -0.53622,-1.34056 -0.52211,-0.33867 -1.67922,-0.33867 h -0.86077 z"
         style="font-family:'Bree Serif';-inkscape-font-specification:'Bree Serif';text-align:end;text-anchor:end"
         id="path484" /></g><g
       aria-label="A"
       id="text477"
       style="font-size:14.1111px;font-family:monospace;-inkscape-font-specification:monospace;letter-spacing:1.32292px;display:inline;stroke-width:0.264583"><path
         d="m 101.89475,141.1561 2.27189,-6.57577 -0.889,-0.0847 v -1.143 h 3.23144 l 2.87867,8.1421 h 0.0141 l 0.80433,0.0423 v 1.19944 h -3.64066 v -1.143 l 0.53622,-0.0423 q 0.23989,-0.0282 0.32455,-0.11289 0.0847,-0.0847 0.0141,-0.31044 l -0.29634,-0.87489 h -3.30199 l -0.42334,1.24177 0.84667,0.0423 v 1.19944 h -3.25967 v -1.143 l 0.46567,-0.0423 q 0.29633,-0.0282 0.42333,-0.39511 z m 3.59833,-6.223 -1.31233,4.02167 h 2.62467 l -1.27,-4.02167 z"
         style="font-family:'Bree Serif';-inkscape-font-specification:'Bree Serif';text-align:end;text-anchor:end"
         id="path487" /></g></g></svg>
