<?xml version="1.0" encoding="UTF-8" standalone="no"?>
<!-- Created with Inkscape (http://www.inkscape.org/) -->

<svg
   width="88.252319mm"
   height="45.28334mm"
   viewBox="0 0 88.252319 45.28334"
   version="1.1"
   id="svg5"
   xml:space="preserve"
   inkscape:version="1.2.2 (732a01da63, 2022-12-09)"
   sodipodi:docname="logo_inkscape.svg"
   inkscape:export-filename="logo_plain.svg"
   inkscape:export-xdpi="96"
   inkscape:export-ydpi="96"
   xmlns:inkscape="http://www.inkscape.org/namespaces/inkscape"
   xmlns:sodipodi="http://sodipodi.sourceforge.net/DTD/sodipodi-0.dtd"
   xmlns="http://www.w3.org/2000/svg"
   xmlns:svg="http://www.w3.org/2000/svg"><sodipodi:namedview
     id="namedview7"
     pagecolor="#ffffff"
     bordercolor="#000000"
     borderopacity="0.25"
     inkscape:showpageshadow="2"
     inkscape:pageopacity="0"
     inkscape:pagecheckerboard="0"
     inkscape:deskcolor="#d1d1d1"
     inkscape:document-units="mm"
     showgrid="false"
     inkscape:zoom="2.0888418"
     inkscape:cx="177.13165"
     inkscape:cy="87.129624"
     inkscape:window-width="1680"
     inkscape:window-height="979"
     inkscape:window-x="1912"
     inkscape:window-y="-8"
     inkscape:window-maximized="1"
     inkscape:current-layer="svg5" /><defs
     id="defs2" /><g
     inkscape:groupmode="layer"
     id="layer1"
     inkscape:label="Fond"
     style="display:inline"
     sodipodi:insensitive="true"><rect
       style="fill:#00379c;stroke-width:0.264583"
       id="rect299"
       width="88.252319"
       height="45.283337"
       x="0"
       y="0" /></g><g
     inkscape:groupmode="layer"
     id="layer2"
     inkscape:label="Crochets"
     style="fill:#deb841;fill-opacity:1"
     transform="translate(-63.009499,-101.06717)"
     sodipodi:insensitive="true"><path
       style="fill:#deb841;fill-opacity:1;stroke-width:0.264583"
       d="m 63.009499,123.69029 v 22.66022 h 22.481 v -2.68698 H 65.741253 v -20.01802 h -2.731754 z"
       id="path411" /><path
       style="fill:#deb841;fill-opacity:1;stroke-width:0.264583"
       d="m 151.26182,123.72739 v -22.66022 h -22.481 v 2.68698 h 19.74925 v 20.01802 h 2.73175 z"
       id="path411-6" /></g><g
     inkscape:groupmode="layer"
     id="layer3"
     inkscape:label="Texte"
     style="display:none;fill:#de9e36;fill-opacity:1"
     transform="translate(-63.009499,-101.06717)"
     sodipodi:insensitive="true"><text
       xml:space="preserve"
       style="font-size:12.3119px;font-family:monospace;-inkscape-font-specification:monospace;letter-spacing:1.32292px;fill:#de9e36;fill-opacity:1;stroke-width:0.264583"
       x="93.862091"
       y="113.77959"
       id="text188"><tspan
         sodipodi:role="line"
         id="tspan186"
         style="font-style:normal;font-variant:normal;font-weight:normal;font-stretch:normal;font-size:12.3119px;font-family:'Bree Serif';-inkscape-font-specification:'Bree Serif';text-align:end;text-anchor:end;fill:#de9e36;fill-opacity:1;stroke-width:0.264583"
         x="95.185013"
         y="113.77959">LES</tspan></text><text
       xml:space="preserve"
       style="font-size:12.3119px;font-family:monospace;-inkscape-font-specification:monospace;letter-spacing:1.32292px;display:inline;fill:#de9e36;fill-opacity:1;stroke-width:0.264583"
       x="137.59895"
       y="113.77959"
       id="text188-1"><tspan
         sodipodi:role="line"
         id="tspan186-8"
         style="font-style:normal;font-variant:normal;font-weight:normal;font-stretch:normal;font-size:12.3119px;font-family:'Bree Serif';-inkscape-font-specification:'Bree Serif';text-align:end;text-anchor:end;fill:#de9e36;fill-opacity:1;stroke-width:0.264583"
         x="138.92188"
         y="113.77959">FILMS</tspan></text><text
       xml:space="preserve"
       style="font-size:12.3119px;font-family:monospace;-inkscape-font-specification:monospace;letter-spacing:1.32292px;display:inline;fill:#de9e36;fill-opacity:1;stroke-width:0.264583"
       x="136.94644"
       y="128.33809"
       id="text188-1-8"><tspan
         sodipodi:role="line"
         id="tspan186-8-5"
         style="font-style:normal;font-variant:normal;font-weight:normal;font-stretch:normal;font-size:12.3119px;font-family:'Bree Serif';-inkscape-font-specification:'Bree Serif';text-align:end;text-anchor:end;fill:#de9e36;fill-opacity:1;stroke-width:0.264583"
         x="138.26936"
         y="128.33809">PLEIN</tspan></text><text
       xml:space="preserve"
       style="font-size:12.3119px;font-family:monospace;-inkscape-font-specification:monospace;letter-spacing:1.32292px;display:inline;fill:#de9e36;fill-opacity:1;stroke-width:0.264583"
       x="121.17611"
       y="142.73654"
       id="text188-1-8-9"><tspan
         sodipodi:role="line"
         id="tspan186-8-5-3"
         style="font-style:normal;font-variant:normal;font-weight:normal;font-stretch:normal;font-size:12.3119px;font-family:'Bree Serif';-inkscape-font-specification:'Bree Serif';text-align:end;text-anchor:end;fill:#de9e36;fill-opacity:1;stroke-width:0.264583"
         x="122.49903"
         y="142.73654">AIR</tspan></text><text
       xml:space="preserve"
       style="font-size:12.3119px;font-family:monospace;-inkscape-font-specification:monospace;letter-spacing:1.32292px;fill:#de9e36;fill-opacity:1;stroke-width:0.264583"
       x="93.960594"
       y="128.33809"
       id="text188-2"><tspan
         sodipodi:role="line"
         id="tspan186-5"
         style="font-style:normal;font-variant:normal;font-weight:normal;font-stretch:normal;font-size:12.3119px;font-family:'Bree Serif';-inkscape-font-specification:'Bree Serif';text-align:end;text-anchor:end;fill:#de9e36;fill-opacity:1;stroke-width:0.264583"
         x="95.283516"
         y="128.33809">DE</tspan></text></g><g
     inkscape:groupmode="layer"
     id="g362"
     inkscape:label="Texte (vecteur)"
     style="display:inline;fill:#de9e36;fill-opacity:1"
     transform="translate(-63.009499,-101.06717)"
     sodipodi:insensitive="true"><g
       aria-label="LES"
       id="text344"
       style="font-size:12.3119px;font-family:monospace;-inkscape-font-specification:monospace;letter-spacing:1.32292px;stroke-width:0.264583"><path
         d="m 77.660852,113.77959 h -5.848153 v -0.99727 l 0.406293,-0.0369 q 0.357045,-0.0369 0.357045,-0.34474 v -5.72503 l -0.701779,-0.0369 v -1.04651 h 2.967168 v 0.99727 l -0.406292,0.0369 q -0.357045,0.0369 -0.357045,0.39398 v 5.49111 h 2.043775 q 0.172367,0 0.221614,-0.0862 0.06156,-0.0985 0.06156,-0.3078 v -0.86183 l 1.255814,0.0862 z"
         style="font-family:'Bree Serif';-inkscape-font-specification:'Bree Serif';text-align:end;text-anchor:end"
         id="path520" /><path
         d="m 85.619894,113.77959 h -5.848153 v -0.99727 l 0.406293,-0.0369 q 0.357045,-0.0369 0.357045,-0.34474 v -5.72503 l -0.701779,-0.0369 v -1.04651 h 5.638851 v 2.04378 l -1.255814,0.0862 v -0.49247 q 0,-0.20931 -0.06156,-0.29549 -0.06156,-0.0862 -0.295485,-0.0862 h -1.822161 v 2.10533 h 2.844049 v 1.25582 h -2.844049 v 2.30232 h 1.982216 q 0.221614,0 0.283173,-0.0862 0.06156,-0.0985 0.06156,-0.3078 v -0.61559 l 1.255814,0.0862 z"
         style="font-family:'Bree Serif';-inkscape-font-specification:'Bree Serif';text-align:end;text-anchor:end"
         id="path522" /><path
         d="m 90.402455,112.67152 q 1.477428,0 1.477428,-1.18195 0,-0.61559 -0.65253,-0.91108 -0.344734,-0.17236 -0.898769,-0.32011 -0.541724,-0.14774 -0.911081,-0.29548 -0.357045,-0.16006 -0.726402,-0.43092 -0.726402,-0.54172 -0.726402,-1.66211 0,-1.13269 0.77565,-1.77291 0.787961,-0.65253 2.043775,-0.65253 1.268126,0 2.351573,0.50479 v 1.84678 l -1.255814,0.0862 v -0.71409 q 0,-0.18468 -0.04925,-0.27087 -0.135431,-0.23392 -0.874145,-0.23392 -0.726402,0 -1.083447,0.25855 -0.344734,0.25855 -0.344734,0.80027 0,0.39398 0.295486,0.68947 0.19699,0.19699 0.578659,0.33242 0.393981,0.12312 0.824898,0.25855 0.443228,0.13543 0.775649,0.29549 0.344733,0.16005 0.71409,0.44322 0.751026,0.55404 0.751026,1.71136 0,1.15732 -0.837209,1.82216 -0.824897,0.66484 -2.191518,0.66484 -1.354309,0 -2.437756,-0.50479 v -1.94528 l 1.255814,-0.0862 v 0.75103 q 0,0.18467 0.04925,0.27086 0.04925,0.0862 0.295486,0.17236 0.25855,0.0739 0.800273,0.0739 z"
         style="font-family:'Bree Serif';-inkscape-font-specification:'Bree Serif';text-align:end;text-anchor:end"
         id="path524" /></g><g
       aria-label="FILMS"
       id="text348"
       style="font-size:12.3119px;font-family:monospace;-inkscape-font-specification:monospace;letter-spacing:1.32292px;display:inline;stroke-width:0.264583"><path
         d="m 98.954359,113.77959 v -0.99727 l 0.406293,-0.0369 q 0.357045,-0.0369 0.357045,-0.34474 v -5.72503 l -0.701778,-0.0369 v -1.04651 h 5.946651 v 2.04378 l -1.25582,0.0862 v -0.49247 q 0,-0.20931 -0.0616,-0.29549 -0.0616,-0.0862 -0.29548,-0.0862 h -2.12996 v 2.1792 h 3.02873 v 1.25582 h -3.02873 v 2.41313 l 1.09576,0.0369 v 1.04651 z"
         style="font-family:'Bree Serif';-inkscape-font-specification:'Bree Serif';text-align:end;text-anchor:end"
         id="path527" /><path
         d="m 107.70135,112.33909 v -5.66347 l -0.70178,-0.0369 v -1.04651 h 2.97948 v 0.99727 l -0.4063,0.0369 q -0.35704,0.0369 -0.35704,0.39398 v 5.67579 l 0.70178,0.0369 v 1.04651 h -2.97948 v -0.99727 l 0.40629,-0.0369 q 0.18468,-0.0246 0.27086,-0.0985 0.0862,-0.0862 0.0862,-0.3078 z"
         style="font-family:'Bree Serif';-inkscape-font-specification:'Bree Serif';text-align:end;text-anchor:end"
         id="path529" /><path
         d="m 117.88882,113.77959 h -5.84815 v -0.99727 l 0.40629,-0.0369 q 0.35705,-0.0369 0.35705,-0.34474 v -5.72503 l -0.70178,-0.0369 v -1.04651 h 2.96717 v 0.99727 l -0.40629,0.0369 q -0.35705,0.0369 -0.35705,0.39398 v 5.49111 h 2.04378 q 0.17236,0 0.22161,-0.0862 0.0616,-0.0985 0.0616,-0.3078 v -0.86183 l 1.25581,0.0862 z"
         style="font-family:'Bree Serif';-inkscape-font-specification:'Bree Serif';text-align:end;text-anchor:end"
         id="path531" /><path
         d="m 122.63446,105.59217 2.09302,5.56498 h 0.0246 l 2.10533,-5.56498 h 2.43776 v 0.99727 l -0.40629,0.0369 q -0.36936,0.0369 -0.35705,0.43092 l 0.3078,5.63885 0.76334,0.0369 v 1.04651 h -2.96717 v -0.99727 l 0.44323,-0.0369 q 0.33242,-0.0246 0.32011,-0.32011 l -0.23393,-4.3461 h -0.0246 l -1.89604,4.91245 h -1.16963 l -1.87141,-4.86321 h -0.0246 l -0.24624,4.56772 0.80028,0.0369 v 1.04651 h -2.90561 v -0.99727 l 0.44323,-0.0369 q 0.28317,-0.0246 0.30779,-0.33242 l 0.33242,-5.72504 -0.75102,-0.0493 v -1.04651 z"
         style="font-family:'Bree Serif';-inkscape-font-specification:'Bree Serif';text-align:end;text-anchor:end"
         id="path533" /><path
         d="m 134.13932,112.67152 q 1.47742,0 1.47742,-1.18195 0,-0.61559 -0.65253,-0.91108 -0.34473,-0.17236 -0.89876,-0.32011 -0.54173,-0.14774 -0.91109,-0.29548 -0.35704,-0.16006 -0.7264,-0.43092 -0.7264,-0.54172 -0.7264,-1.66211 0,-1.13269 0.77565,-1.77291 0.78796,-0.65253 2.04378,-0.65253 1.26812,0 2.35157,0.50479 v 1.84678 l -1.25582,0.0862 v -0.71409 q 0,-0.18468 -0.0492,-0.27087 -0.13543,-0.23392 -0.87415,-0.23392 -0.7264,0 -1.08344,0.25855 -0.34474,0.25855 -0.34474,0.80027 0,0.39398 0.29549,0.68947 0.19699,0.19699 0.57866,0.33242 0.39398,0.12312 0.82489,0.25855 0.44323,0.13543 0.77565,0.29549 0.34474,0.16005 0.71409,0.44322 0.75103,0.55404 0.75103,1.71136 0,1.15732 -0.83721,1.82216 -0.8249,0.66484 -2.19152,0.66484 -1.35431,0 -2.43775,-0.50479 v -1.94528 l 1.25581,-0.0862 v 0.75103 q 0,0.18467 0.0493,0.27086 0.0492,0.0862 0.29548,0.17236 0.25855,0.0739 0.80028,0.0739 z"
         style="font-family:'Bree Serif';-inkscape-font-specification:'Bree Serif';text-align:end;text-anchor:end"
         id="path535" /></g><g
       aria-label="PLEIN"
       id="text352"
       style="font-size:12.3119px;font-family:monospace;-inkscape-font-specification:monospace;letter-spacing:1.32292px;display:inline;stroke-width:0.264583"><path
         d="m 98.954358,128.33809 v -0.99726 l 0.406293,-0.0369 q 0.357045,-0.0369 0.357045,-0.34473 v -5.72504 l -0.701778,-0.0369 v -1.04651 h 3.521202 q 1.37893,0 2.14227,0.65253 0.77565,0.64021 0.77565,1.93296 0,1.29275 -0.87414,2.01916 -0.87415,0.71409 -2.31464,0.71409 h -1.04651 v 1.78522 l 1.18194,0.0369 v 1.04651 z m 2.265392,-4.06293 h 0.88645 q 1.79754,0 1.79754,-1.46511 0,-0.88646 -0.46785,-1.16963 -0.45554,-0.29549 -1.46512,-0.29549 h -0.75102 z"
         style="font-family:'Bree Serif';-inkscape-font-specification:'Bree Serif';text-align:end;text-anchor:end"
         id="path538" /><path
         d="m 113.38945,128.33809 h -5.84815 v -0.99726 l 0.40629,-0.0369 q 0.35705,-0.0369 0.35705,-0.34473 v -5.72504 l -0.70178,-0.0369 v -1.04651 h 2.96717 v 0.99726 l -0.40629,0.0369 q -0.35705,0.0369 -0.35705,0.39398 v 5.4911 h 2.04378 q 0.17236,0 0.22161,-0.0862 0.0616,-0.0985 0.0616,-0.3078 v -0.86183 l 1.25581,0.0862 z"
         style="font-family:'Bree Serif';-inkscape-font-specification:'Bree Serif';text-align:end;text-anchor:end"
         id="path540" /><path
         d="m 121.3485,128.33809 h -5.84816 v -0.99726 l 0.4063,-0.0369 q 0.35704,-0.0369 0.35704,-0.34473 v -5.72504 l -0.70178,-0.0369 v -1.04651 h 5.63885 v 2.04377 l -1.25581,0.0862 v -0.49247 q 0,-0.2093 -0.0616,-0.29549 -0.0616,-0.0862 -0.29549,-0.0862 h -1.82216 v 2.10533 h 2.84405 v 1.25582 h -2.84405 v 2.30232 h 1.98222 q 0.22161,0 0.28317,-0.0862 0.0616,-0.0985 0.0616,-0.3078 v -0.61559 l 1.25582,0.0862 z"
         style="font-family:'Bree Serif';-inkscape-font-specification:'Bree Serif';text-align:end;text-anchor:end"
         id="path542" /><path
         d="m 124.32121,126.8976 v -5.66348 l -0.70178,-0.0369 v -1.04651 h 2.97948 v 0.99726 l -0.40629,0.0369 q -0.35705,0.0369 -0.35705,0.39398 v 5.67578 l 0.70178,0.0369 v 1.04651 h -2.97948 v -0.99726 l 0.40629,-0.0369 q 0.18468,-0.0246 0.27086,-0.0985 0.0862,-0.0862 0.0862,-0.30779 z"
         style="font-family:'Bree Serif';-inkscape-font-specification:'Bree Serif';text-align:end;text-anchor:end"
         id="path544" /><path
         d="m 128.66053,128.33809 v -0.99726 l 0.44323,-0.0369 q 0.32011,-0.0246 0.32011,-0.34473 v -5.72504 l -0.70178,-0.0369 v -1.04651 h 2.21614 l 3.48427,5.65116 h 0.0246 v -4.56772 l -0.81259,-0.0369 v -1.04651 h 3.0041 v 0.99726 l -0.44322,0.0369 q -0.29549,0.0246 -0.29549,0.38166 v 6.77155 h -1.44049 l -3.55814,-5.73735 h -0.0246 v 4.6539 l 0.80027,0.0369 v 1.04651 z"
         style="font-family:'Bree Serif';-inkscape-font-specification:'Bree Serif';text-align:end;text-anchor:end"
         id="path546" /></g><g
       aria-label="AIR"
       id="text356"
       style="font-size:12.3119px;font-family:monospace;-inkscape-font-specification:monospace;letter-spacing:1.32292px;display:inline;stroke-width:0.264583"><path
         d="m 99.730006,141.35761 1.982214,-5.73735 -0.77565,-0.0739 v -0.99726 h 2.81943 l 2.51163,7.10396 h 0.0123 l 0.70178,0.0369 v 1.04651 h -3.17647 v -0.99726 l 0.46785,-0.0369 q 0.2093,-0.0246 0.28317,-0.0985 0.0739,-0.0739 0.0123,-0.27086 l -0.25855,-0.76334 h -2.88098 l -0.36936,1.08344 0.73872,0.0369 v 1.04651 h -2.844053 v -0.99726 l 0.406292,-0.0369 q 0.25855,-0.0246 0.369357,-0.34473 z m 3.139534,-5.42955 -1.14501,3.50889 h 2.29002 l -1.10807,-3.50889 z"
         style="font-family:'Bree Serif';-inkscape-font-specification:'Bree Serif';text-align:end;text-anchor:end"
         id="path549" /><path
         d="m 109.52352,141.29605 v -5.66347 l -0.70178,-0.0369 v -1.04651 h 2.97948 v 0.99726 l -0.40629,0.0369 q -0.35704,0.0369 -0.35704,0.39398 v 5.67578 l 0.70177,0.0369 v 1.04651 h -2.97948 v -0.99726 l 0.4063,-0.0369 q 0.18467,-0.0246 0.27086,-0.0985 0.0862,-0.0862 0.0862,-0.3078 z"
         style="font-family:'Bree Serif';-inkscape-font-specification:'Bree Serif';text-align:end;text-anchor:end"
         id="path551" /><path
         d="m 113.86285,142.73654 v -0.99726 l 0.40629,-0.0369 q 0.35705,-0.0369 0.35705,-0.34473 v -5.72503 l -0.70178,-0.0369 v -1.04651 h 3.36115 q 1.42818,0 2.19151,0.52941 0.76334,0.52941 0.76334,1.73598 0,0.83721 -0.44323,1.37893 -0.43091,0.54172 -1.0342,0.78796 0.44323,0.16006 0.70178,0.75103 l 0.88646,1.93297 0.70178,0.0246 v 1.04651 h -3.04104 v -0.99726 l 0.35704,-0.0369 q 0.28318,-0.0369 0.28318,-0.22161 0,-0.0739 -0.0493,-0.17237 l -0.57866,-1.23119 q -0.13543,-0.3078 -0.3078,-0.43092 -0.16005,-0.13543 -0.46785,-0.13543 h -1.12038 v 2.14227 l 0.80027,0.0369 v 1.04651 z m 2.26539,-4.39535 h 1.07113 q 1.51437,0 1.51437,-1.35431 0,-0.77565 -0.4063,-1.00957 -0.39398,-0.23393 -1.28043,-0.23393 h -0.89877 z"
         style="font-family:'Bree Serif';-inkscape-font-specification:'Bree Serif';text-align:end;text-anchor:end"
         id="path553" /></g><g
       aria-label="DE"
       id="text360"
       style="font-size:12.3119px;font-family:monospace;-inkscape-font-specification:monospace;letter-spacing:1.32292px;stroke-width:0.264583"><path
         d="m 78.109623,128.33809 v -0.99726 l 0.406293,-0.0369 q 0.357045,-0.0369 0.357045,-0.34473 v -5.72504 l -0.701778,-0.0369 v -1.04651 h 3.373461 q 1.809849,0 2.819425,0.96032 1.021887,0.96033 1.021887,2.84405 0,1.16963 -0.307797,2.04378 -0.307798,0.86183 -0.837209,1.35431 -1.058824,0.98495 -2.634747,0.98495 z m 2.26539,-6.99316 v 5.81122 h 1.255814 q 1.058823,0 1.649794,-0.76334 0.590972,-0.76334 0.590972,-2.21614 0,-2.83174 -2.400821,-2.83174 z"
         style="font-family:'Bree Serif';-inkscape-font-specification:'Bree Serif';text-align:end;text-anchor:end"
         id="path556" /><path
         d="m 93.46812,128.33809 h -5.848152 v -0.99726 l 0.406293,-0.0369 q 0.357045,-0.0369 0.357045,-0.34473 v -5.72504 l -0.701779,-0.0369 v -1.04651 h 5.638851 v 2.04377 l -1.255814,0.0862 v -0.49247 q 0,-0.2093 -0.06156,-0.29549 -0.06156,-0.0862 -0.295485,-0.0862 h -1.822161 v 2.10533 h 2.844048 v 1.25582 h -2.844048 v 2.30232 h 1.982215 q 0.221615,0 0.283174,-0.0862 0.06156,-0.0985 0.06156,-0.3078 v -0.61559 l 1.255813,0.0862 z"
         style="font-family:'Bree Serif';-inkscape-font-specification:'Bree Serif';text-align:end;text-anchor:end"
         id="path558" /></g></g></svg>
